<?xml version="1.0" encoding="utf-8"?>
<!-- Generator: Adobe Illustrator 16.0.4, SVG Export Plug-In . SVG Version: 6.00 Build 0)  -->
<!DOCTYPE svg PUBLIC "-//W3C//DTD SVG 1.1//EN" "http://www.w3.org/Graphics/SVG/1.1/DTD/svg11.dtd">
<svg version="1.1" id="Calque_1" xmlns="http://www.w3.org/2000/svg" xmlns:xlink="http://www.w3.org/1999/xlink" x="0px" y="0px"
	 width="184.962px" height="243.609px" viewBox="0 0 184.962 243.609" enable-background="new 0 0 184.962 243.609"
	 xml:space="preserve">
<g>
	<g>
		<path fill="#129877" d="M110.146,119.518c0.415,2.041,2.995,2.024,3.559,3.178c0,0,0.121,1.082,0.572,2.968
			c0.443,1.89,1.893,1.768,3.649,1.687c1.759-0.08,1.993-0.121,4.104-0.847c2.111-0.72,31.687-21.63,31.687-21.63
			c-5.477-6.234-11.87-5.185-17.918-3.476c-6.052,1.709-15.774,9.017-18.693,11.479
			C114.187,115.346,109.733,117.475,110.146,119.518z"/>
		<path fill="#129877" d="M69.227,127.35c1.756,0.082,3.202,0.203,3.651-1.687c0.447-1.887,0.569-2.968,0.569-2.968
			c0.562-1.153,3.143-1.137,3.562-3.178c0.412-2.043-4.042-4.172-6.96-6.642c-2.919-2.462-12.643-9.77-18.69-11.479
			c-6.053-1.709-12.448-2.758-17.923,3.476c0,0,29.576,20.911,31.687,21.63C67.234,127.229,67.469,127.27,69.227,127.35z"/>
		<path fill="#232323" d="M74.989,89.561c0,0,4.577,1.125,7.184,0.564c2.603-0.558,4.939-1.464,2.698-2.603
			c0,0-11.224-4.866-11.281-11.791c-0.055-6.924,0.529-13.762,3.537-14.462c3.009-0.707,6.048-1.045,3.553-2.112
			c-2.497-1.067-6.115,0.125-6.352-0.9c-0.24-1.03-0.451-5.456,1.718-6.274c2.17-0.82,4.121,0.662,6.054,1.082
			c1.934,0.418,3.295,0.177,0.438-1.377c-2.853-1.56-3.684-2.467-3.717-6.548c-0.034-4.077,2.781-6.072,2.205-6.73
			c-0.577-0.662-2.679,1.806-3.396,4.393c-0.725,2.589-2.442,2.529-2.987,3.655c-0.551,1.125-3.966,5.071-5.207,13.457
			s-1.822,20.969,0.791,24.637C72.846,88.226,74.989,89.561,74.989,89.561z"/>
		<path fill="#232323" d="M110.769,89.946c1.019-0.475,4.383-4.007,5.84-5.914c1.451-1.898,0.708-7.881,0.396-15.142
			c-0.308-7.261-0.828-13.157-2.337-16.186c-0.709-1.428-1.514-2.731-2.271-3.853c-0.379-1.369-0.566-2.854-0.094-4.001
			c1.162-2.829,5.173-6.862,6.37-6.9c1.204-0.031,2.063,1.138,2.396,1.116c0.325-0.013-0.357-1.505-0.971-2.31
			c-0.614-0.794-0.857-1.112-0.302-1.939c0.56-0.821,2.859-0.863,3.105-0.588c0.249,0.282,0.325,1.75,0.687,2.275
			c0.365,0.526,1.827,0.849,1.34,0.379c-0.479-0.474-1.461-2.768,0.263-4.539c1.738-1.776,4.192-2.111,3.229-2.474
			c-0.96-0.361-2.811,0.095-4.514,1.441c-0.825,0.249-2.482,0.663-4.132,1.451c-1.644,0.784-3.817,3.115-6.354,6.09
			c-1.56,1.829-3.022,3.393-3.926,4.631c-1.108-2.642-2.748-4.457-4.174-4.897c-1.823-0.571,1.389,2.728,1.895,7.303
			c0.505,4.579-3.555,6.806-4.802,6.952c-1.245,0.141,1.264,1.333,2.392,0.978c1.135-0.355,2.928-2.417,3.607-2.538
			c0.679-0.119,4.001,2.564,3.876,4.407c-0.136,1.838-0.855,2.031-2.669,2.5c-1.807,0.466-4.516,1.869-4.055,2.272
			c0.458,0.398,3.061-0.328,4.777,1.094c1.719,1.424,2.974,11.916,1.445,17.383c-1.53,5.464-11.245,9.431-11.245,9.431
			C96.083,90.125,110.769,89.946,110.769,89.946z"/>
		<path fill="#232323" d="M80.476,91.773c-2.39-0.097-5.291-0.948-6.171-0.434c-0.877,0.515,0.537,2.634,1.688,4.312
			c1.151,1.672-0.843,3.222-1.449,5.259c-0.608,2.042,1.197,6.126,2.827,6.771c1.637,0.655,3.314,2.794,3.314,2.794
			s1.907,2.014,4.039,1.743c2.137-0.276,6.245-3.59,10.148-3.61c3.892-0.021,5.297,1.675,7.938,2.402
			c2.651,0.723,2.892-0.032,2.892-0.032s2.866-2.045,5.855-4.844c2.989-2.799-0.481-9.426-0.621-10.876
			c-0.147-1.452,2.86-2.345,2.098-3.354c-0.768-1.007-2.398-0.596-4.36-0.066c-1.968,0.522-5.705-0.692-8.96-1.16
			c-3.25-0.467-1.95-4.005-1.95-4.005c-6.271,1.08-8.423,0.099-8.423,0.099C89.87,88.905,82.865,91.872,80.476,91.773z"/>
		<path fill="#232323" d="M95.024,110.972c-5.042-0.7-7.009,3.094-10.148,3.379c-3.139,0.289-4.803-2.065-4.803-2.065
			s-0.991,1.249-0.448,4.137c0.532,2.884-1.958,5.051-2.065,7.618c-0.107,2.567,10.112,3.856,15.259,3.925
			c5.157,0.069,14.194-1.039,15.562-2.687c1.36-1.651-1.082-6.525-0.848-8.253c0.232-1.73-0.943-5.032-0.943-5.032
			s-1.356,1.758-2.613,2.163C102.725,114.566,100.055,111.668,95.024,110.972"/>
		<path fill="#232323" d="M74.484,140.076c0.308-5.062,4.58-11.178,4.58-11.178s-5.965,4.175-12.379,5.461
			c-6.42,1.29-22.584,0.252-33.656,5.306c-11.066,5.055-24.06,20.66-17.843,21.591c6.22,0.936,12.211,2.198,18.812,0.332
			c0,0,8.776,3.146,21.957,1.01c13.186-2.133,18.274-4.87,19.252-9.162C76.185,149.142,74.174,145.14,74.484,140.076z"/>
		<path fill="#232323" d="M154.113,140.888c-10.914-5.372-27.106-4.806-33.486-6.277c-6.375-1.469-12.218-5.82-12.218-5.82
			s4.101,6.235,4.26,11.309c0.159,5.067-1.97,9.011-1.113,13.331c0.854,4.318,5.863,7.198,18.978,9.718
			c13.113,2.518,21.977-0.374,21.977-0.374c6.548,2.058,12.571,0.967,18.815,0.215C177.568,162.236,165.03,146.263,154.113,140.888z
			"/>
		<path fill="#232323" d="M92.298,130.625c-5.892,0-10.529-1.274-11.54-1.835c0,0-5.644,25.993-1.023,37.33
			c2.362,6.22,8.603,12.133,12.614,12.133c3.873,0,11.112-4.461,14.176-11.186c5.839-7.384-0.64-38.146-0.64-38.146
			C104.139,129.613,97.78,130.625,92.298,130.625z"/>
	</g>
	<g>
		<path fill="#129877" d="M130.216,26.642c-0.319-0.606-3.056-5.692-1.648-8.934c1.414-3.237,3.762-5.513,7.996-5.895
			c4.239-0.385,8.208-0.462,9.42-0.606c1.206-0.135,1.526-0.428,1.731-0.254c0.204,0.173-0.271,1.359-0.447,3.104
			c-0.18,1.751-0.729,8.786-2.252,11.498c-1.534,2.717-3.801,4.393-6.508,4.351c-2.704-0.047-5.946-1.456-6.473-1.832
			C132.036,28.075,130.578,27.322,130.216,26.642z"/>
		<path fill="#129877" d="M122.975,25.288c0.363-0.54,2.114-3.504,2.595-6.169c0.478-2.664-0.812-5.167-3.25-7.113
			c-2.438-1.943-9.294-3.611-10.989-4.072c-1.698-0.454-2.787-1.11-2.993-0.937c-0.204,0.176,0.032,0.539-0.024,1.751
			c-0.057,1.215-0.613,5.151-0.916,9.394c-0.289,4.247,1.565,6.923,4.539,8.834c2.972,1.911,7.043,0.613,7.9,0.347
			c0,0,1.565-0.607,1.831-0.812C122.288,26.027,122.733,25.643,122.975,25.288z"/>
		<path fill="#129877" d="M102.29,37.474c-0.536,0.424-5.409,3.532-8.764,2.403c-3.345-1.132-5.804-3.28-6.548-7.465
			c-0.744-4.191-1.154-8.143-1.399-9.334c-0.237-1.193-0.557-1.485-0.4-1.705c0.153-0.218,1.37,0.156,3.128,0.184
			c1.759,0.031,8.819-0.021,11.652,1.273c2.838,1.294,4.691,3.405,4.881,6.108c0.186,2.706-0.942,6.053-1.273,6.61
			C103.566,35.548,103.021,36.909,102.29,37.474z"/>
		<path fill="#129877" d="M126.866,34.358c0.308-0.381,2.967-3.565,5.499-3.502c2.535,0.066,4.675,1.014,6.077,3.729
			c1.395,2.715,2.521,5.333,2.934,6.099c0.417,0.767,0.701,0.901,0.64,1.086c-0.063,0.179-0.976,0.183-2.187,0.533
			c-1.206,0.354-6.033,1.889-8.253,1.6c-2.217-0.279-3.942-1.336-4.642-3.149c-0.702-1.812-0.634-4.347-0.529-4.799
			C126.405,35.953,126.461,34.873,126.866,34.358z"/>
		<path fill="#129877" d="M85.84,50.499c-0.181-0.46-0.642-4.593,1.117-6.423c1.751-1.829,3.9-2.771,6.845-1.975
			c2.944,0.793,5.643,1.728,6.488,1.936c0.846,0.209,1.136,0.092,1.226,0.259c0.097,0.169-0.521,0.844-1.072,1.976
			c-0.557,1.136-2.68,5.734-4.38,7.18c-1.707,1.448-3.646,2.012-5.456,1.304c-1.812-0.705-3.645-2.458-3.903-2.842
			C86.705,51.913,86.314,51.696,85.84,50.499z"/>
		<path fill="#129877" d="M77.415,38.377c-0.548,0.045-5.203-0.219-6.867-2.529c-1.665-2.31-2.276-4.872-0.8-7.97
			c1.476-3.093,3.055-5.875,3.459-6.771c0.397-0.891,0.325-1.234,0.535-1.303c0.206-0.073,0.823,0.742,1.964,1.589
			c1.141,0.841,5.788,4.114,7.04,6.29c1.253,2.175,1.48,4.434,0.336,6.294c-1.145,1.857-3.452,3.523-3.931,3.732
			C79.15,37.708,78.257,38.312,77.415,38.377z"/>
		<path fill="#129877" d="M70.678,49.959c-0.025,0.664-1.166,6.149-4.199,7.727c-3.042,1.58-6.186,1.861-9.61-0.432
			c-3.422-2.293-6.46-4.65-7.458-5.285c-0.988-0.635-1.411-0.607-1.457-0.866c-0.046-0.257,1.03-0.853,2.231-2.06
			c1.197-1.206,5.899-6.171,8.702-7.278c2.806-1.117,5.531-0.995,7.544,0.688c2.007,1.681,3.59,4.72,3.755,5.319
			C70.186,47.772,70.736,48.702,70.678,49.959z"/>
		<path fill="#129877" d="M115.656,35.791c-0.218,0.184-1.773,2.009-3.231,1.928c-1.465-0.079-2.688-0.667-3.446-2.253
			c-0.763-1.594-1.363-3.123-1.589-3.576c-0.228-0.45-0.391-0.532-0.352-0.635c0.032-0.106,0.564-0.092,1.272-0.274
			c0.704-0.183,3.521-0.983,4.791-0.782c1.277,0.206,2.255,0.844,2.628,1.901c0.373,1.06,0.293,2.522,0.219,2.778
			C115.948,34.878,115.948,35.548,115.656,35.791z"/>
		<path fill="#129877" d="M79.397,61.979c0.286-0.22,2.802-1.294,4.465-0.458c1.666,0.834,2.796,2.133,2.877,4.373
			c0.081,2.241,0.012,4.334,0.049,4.977c0.038,0.635,0.187,0.812,0.084,0.919c-0.095,0.102-0.703-0.183-1.616-0.325
			c-0.918-0.145-4.607-0.632-5.989-1.516c-1.391-0.881-2.204-2.125-2.107-3.545c0.101-1.425,0.935-3.087,1.151-3.354
			C78.311,63.051,78.529,62.648,79.397,61.979z"/>
		<path fill="#129877" d="M103.184,55.485c0.207,0.312,1.711,3.099,0.967,4.881c-0.751,1.79-2.018,3.046-4.337,3.29
			c-2.317,0.244-4.491,0.32-5.159,0.399c-0.654,0.084-0.828,0.251-0.941,0.153c-0.114-0.092,0.138-0.742,0.22-1.702
			c0.089-0.961,0.338-4.821,1.154-6.317c0.814-1.5,2.046-2.432,3.527-2.429c1.484,0.002,3.274,0.751,3.562,0.95
			C102.176,54.71,102.858,54.999,103.184,55.485z"/>
		<path fill="#129877" d="M120.097,40.602c0.376-0.061,3.6-0.228,4.915,1.24c1.324,1.469,1.93,3.189,1.14,5.432
			c-0.788,2.239-1.67,4.278-1.882,4.921c-0.214,0.647-0.136,0.877-0.273,0.942c-0.138,0.062-0.626-0.455-1.472-0.951
			c-0.847-0.499-4.292-2.412-5.317-3.818c-1.023-1.41-1.349-2.948-0.696-4.312c0.652-1.367,2.12-2.684,2.434-2.864
			C118.945,41.192,119.387,40.723,120.097,40.602z"/>
	</g>
	<path fill="#129877" d="M63.795,197.219c-2.375-3.957-5.628-7.033-9.764-9.23c-4.132-2.19-8.745-3.29-13.835-3.29
		c-5.136,0-9.773,1.1-13.905,3.29c-4.137,2.197-7.39,5.273-9.763,9.23c-2.374,3.964-3.558,8.492-3.558,13.599
		c0,5.102,1.184,9.635,3.558,13.595c2.374,3.96,5.626,7.025,9.763,9.196c4.132,2.171,8.769,3.255,13.905,3.255
		c5.09,0,9.703-1.097,13.835-3.292c4.136-2.193,7.388-5.259,9.764-9.194c2.372-3.937,3.562-8.458,3.562-13.56
		C67.356,205.711,66.167,201.183,63.795,197.219z M55.574,220.226c-1.592,2.697-3.729,4.771-6.423,6.226
		c-2.692,1.456-5.675,2.183-8.955,2.183c-3.278,0-6.272-0.727-8.99-2.183c-2.713-1.454-4.865-3.528-6.456-6.226
		c-1.593-2.695-2.386-5.831-2.386-9.408c0-3.529,0.783-6.644,2.348-9.339c1.562-2.694,3.706-4.781,6.421-6.262
		c2.716-1.477,5.737-2.217,9.063-2.217c3.327,0,6.339,0.74,9.028,2.217c2.692,1.48,4.82,3.567,6.386,6.262
		c1.565,2.695,2.348,5.81,2.348,9.339C57.958,214.395,57.165,217.531,55.574,220.226z"/>
	<path fill="#129877" d="M108.785,190.135c-3.399-2.907-7.917-4.361-13.541-4.361H76.548h-0.073c-0.984,0-1.782,0.796-1.782,1.777
		v46.384v0.075c0,0.983,0.798,1.781,1.782,1.781h5.686h0.074c0.98,0,1.781-0.798,1.781-1.781v-15.823h11.153
		c5.726,0,10.276-1.368,13.652-4.114c3.378-2.743,5.067-6.738,5.067-11.982C113.889,197.032,112.185,193.047,108.785,190.135z
		 M94.069,210.673h-8.272h-1.78v-1.779v-0.072v-13.756v-1.779h1.78h0.073h8.199c6.998,0,10.496,2.933,10.496,8.804
		C104.565,207.811,101.067,210.673,94.069,210.673z"/>
	<path fill="#129877" d="M129.082,187.516v0.075V187.516c0-0.859-0.611-1.577-1.421-1.742h-6.48
		c-0.812,0.165-1.419,0.879-1.422,1.736v46.425v0.075c0,0.983,0.799,1.781,1.782,1.781h5.687h0.073c0.98,0,1.781-0.798,1.781-1.781
		v-48.236l0,0V187.516z"/>
	<path fill="#129877" d="M171.183,185.774h-31.877c-0.812,0.165-1.422,0.883-1.422,1.742v46.419v0.075
		c0,0.983,0.799,1.781,1.787,1.781h31.512c0.812-0.167,1.424-0.886,1.424-1.745v-3.915v-0.072c0-0.985-0.8-1.781-1.786-1.781h-21.83
		h-1.785v-1.781v-0.071v-10.106v-1.782h1.785h0.067h15.593c0.809-0.164,1.42-0.884,1.42-1.742v-3.914v-0.075
		c0-0.983-0.799-1.78-1.781-1.78h-15.299h-1.785v-1.782v-0.072v-10.104v-1.779h1.785h0.067h21.689h0.073
		c0.986,0,1.786-0.8,1.786-1.782v-3.913v-0.075C172.607,186.657,171.995,185.939,171.183,185.774z"/>
</g>
</svg>
